<svg version="1.1" id="Layer_1" xmlns="http://www.w3.org/2000/svg" x="0" y="0" viewBox="0 0 400 400" xml:space="preserve"><style type="text/css">.st0{fill-rule:evenodd;clip-rule:evenodd;fill:#bf9d3e}</style><path class="st0" d="M387.4 363.5c-2.5-4.8-6.6-8-10-12-4.2-3.2-9.3-5-13.5-8.3-5.7-4.4-12.2-7.6-17.9-12.2l-1.2-.9c-1.8-1.2-3.5-2.4-5-3.9-.6-.5-1.3-1-1.9-1.4-1-.8-2-1.5-2.7-2.4-2.1-1.3-4-2.8-6.1-4.1-.8-.5-1.5-1-2-1.7-.6-.2-1.3-.6-2-1.5V314c-.3-.5-.4-1-.2-1.6.1-.3.2-.5.3-.7.1-.6.4-1 .9-1.3 0 .2.1.3.1.5 2-1.2 6.3-.5 7.2-2.1.2-.3.4-.5.6-.6 1.9-2.6 4.3-4.8 9.1-4.5 0-.5.1-.8.3-1.2-.1-.2-.2-.5-.4-.7l-.6-.9c-1.2-.5-1.5-1.8-1.9-3 .1-.9.7-1.2 1.5-1.4.1-.1.1-.2.2-.3.7-1 .7-1.9.3-2.7-3.2-2.4-7.8-3.3-10.4-6.3-.7-.6-1.5-1.1-2.4-1.6-1.6-.5-3-1.3-4.3-2-1.8-.7-3.6-1.4-5.3-2.2-.3 0-.6-.1-.9-.1-.3-.1-.5-.3-.6-.6-.6-.3-1.2-.7-1.8-1.1-10.5-3.3-22.7-9.4-32.3-13.4-.4-.2-.8-.3-1.1-.4-4.1-.1-8.9-4-12.2-6-3-1.8-6-3.7-8.9-5.7-2.2-1.6-3.7-3.6-5.6-5.5-2.3-2.4-4.2-5.1-6.5-7.5-2.1-2.3-4.5-4.3-6.3-6.9-2.9-4.2-6.2-8.5-8.3-13.2-1.8-2.2-4.9-5.7-6-7.1-8.6-11.1-19-20-28-30.1-3.6-2.2-7-4.9-10.3-7.3-3.3-2.4-6.9-4.9-9.9-7.8-1.4-1.3-7.6-6.7-9.3-7.8-4.5-3-8.4-6.1-13.5-8.3-2.9-1.2-6.4-1.6-9.3-3.1-1.7-.9-2.9-2.7-4.7-3.6-.9-.5-3.1-1.4-4.3-1.9-2.4-.9-4.3-2-6.6-2.8-3.5-1.2-4.7-1.8-10-3.4-5.8-1.3-4.1-.9-7.1-1.8-1.6-.4-3.2-.2-4.5-.6-.7-.2-1.8-.6-2.7-1-1.2-.4-2.6-.7-3.2-1-1.4-.7-2.4-2.6-4.1-3.7-3-1.8-6.1-2.1-7.3-4.1-2.1-3.6-.3-7.9.5-12.9 5.5-2.1 12.7-2.5 19.2-3.7 1.4-.5 1.6-.8 3.1-.5 3.7-1 7.1-1.6 10.6-2 .1 0 .2.1.3.1 1.4-.2 3 .2 4.3.5 1.5.3 3 .8 4.5 1.4 2.7.8 4.6 2.4 6.5 4.3.4.3.8.7 1.2 1 1.2.6 2.1 1.4 3.3 2 .4.2.8.4 1.2.5.1.1.3.1.4.1.9.4 1.7.8 2.3 1.5.3.4 1.5 1.2 1.4 1.7l.3.3c.5.2.9.6 1.4 1 .6.6 1.4.9 2.2 1.3 1.3.7 2.7 1.3 4.1 1.8l.8.1c3 1.3 7.2 1.9 9.5 4.3.2.1.5.2.7.3.9-.4 1.7 0 2.5.4.7.1 1.4.4 2.2.5.2-.1.4-.2.5-.2.7 0 1.1.3 1.4.6.5.2 1.2.4 1.9.6 1.5.1 2.9.9 4-.4-.4-1.3-1.5-1.7-2.9-1.6-.3-.4-.8-.8-1.3-1-1.2-.1-1.8-.4-2.6-1.1-1.5-.5-2.9-1.1-4.4-1.7-.2-.1-.4-.1-.6-.2-.2-.1-.4-.2-.6-.2-.4-.1-.8-.3-1.2-.3v-.3c-2.4-1-4.9-2.1-7.5-2.8-1.9-.6-3.4-1.1-4.7-1.8-.3.1-.7.1-1 0 0-.3 0-.5-.1-.7-1.4-1-2.6-2.4-3.7-4.5-.2-.4-.2-.7-.1-1-.1-.2-.3-.5-.4-.7 1.4-1.2 3.3-.2 5.1-.4 1.7-.2 3.3-1.1 5-1.4.4 0 1 .2 1.3.3 1.9-.1 3.4-1.3 5.2-1.7 2.6-.5 5.1.1 7.7.2l.3.3c3.2 1 7.2.6 10.4.6h.6c.1 0 .2-.1.3-.1.1.1.2.1.3.2 1.4.1 2.7.4 4 .8 1.6.4 3.2.9 4.9 1.3h.1c3.4.4 6.7 1.1 10 1.6.1 0 .2 0 .3.1 1.2.2 3 .4 4.1 1.1h.1l.1.1s0 .1.1.1l.5.5c.1.1.2.3.2.4 0 .1.1.1.1.2 0-.1 0-.1.1-.2l.3.6c.6.7 1.2 1.4 1.8 2 1 .9 2.1 1.1 3.2 1.8.1.1.2.2.2.3h.1v.1c.1.3.1.7.1 1 0 1.3.6 2.7 1.4 3.7.1.1.1.2.1.3.1.1.2.2.3.2-.2.2-.3.4-.5.5 0 .5-.1.9-.7 1.2-1.1.6-2.2 1.2-3.2 1.8-.1.1-.2.2-.4.2-.5.3-1 .6-1.4.9-.2.1-.3.2-.5.4l-.2.2c-.8.6-1.6 1.3-2.3 2.1-.4.5-.8 1.1-1 1.7-.1.3-.1.4-.4.5-.1 0-.3.1-.4.1-3.7 4.7-7.2 8.8-7.2 15.4 0 1.8.1 3.7.3 5.5.4.6.7 1.2 1 1.9.5 1.1.5 2.2.7 3.4.2 1.2.9 2.3 1.3 3.5.4 1.2.7 2.3 1.3 3.4.6 1.1 1.3 2.2 2 3.3.6 1 1.2 1.9 1.7 3 .3.5.3 1 .8 1.2.6.3.7.9 1 1.5.6 1.1 1.2 2.2 2 3.2.6.9 1.2 1.8 2.2 2.3 1 .5 1.8.9 2.4 1.9.6.8 1 1.8 2 2.2.9.4 1.8 1.1 2.8 1.4.4.1.8.1 1 .5.1.3.2.5.3.7 5.7 2.5 12.3 3.8 18.4 3.1 2.1-.2 3.8-.9 5.3-1.8.4-.5.6-1.3 1.1-1.8.5-.5 1.2-.7 1.9-.7l.5-.5c5.4-8.2 7.4-18.1 5.7-27.8-.5-2.8-1.2-5.6-2.2-8.3 1.9 1.4 3.8 2.8 5.8 4.1l2.7 1.8c.2.1.3.2.5.2 1.2.2 2.3.7 3.3 1.3.5.1 1 .3 1.5.4.3.1.6.2.9.2h1.3c.7.1 1.3.1 2 .3.3.1.7.1 1 .2.3.3.6.4 1 .5 1.2.3 2.1.2 3.2.8.6.3 1.3.5 1.9.7.8.2 1.5.5 2.3.7 1.3.4 2.6.9 3.8 1.4.6.3 1.3.5 1.9.8.7.3 1.3.2 2 0 2.5-.5 4.9-1.4 7.2-2.6 2.2-1.2 4-2.9 5.7-4.7.1-.1.2-.2.2-.3.1-.1.1-.2.2-.3 1.3-2.5 1.9-4.9 1.8-7.8-.1-3.5-1.2-6.7-1.7-10.1-.4-1-.9-1.9-1.2-2.9-.1-.2-.3-.4-.4-.7-.3-.4-.7-.9-1-1.3-.5-.5-.8-1.1-1.2-1.7 0 0-.1 0-.1-.1-.3-.2-.3-.4-.3-.7-.3-.6-.7-1.1-1-1.7-.2-.2-.4-.5-.6-.7-.1-.1-.2-.1-.2-.2-.5-.4-1.9-1.3-2-2.1-.3-.2-.5-.5-.8-.7-.9-.7-2-1.3-2.8-2.1-.5-.5-1-.9-1.5-1.3-.1 0-.1-.1-.2-.1-.5-.3-1-.5-1.3-1-.1-.2-.2-.3-.4-.5-.5-.3-.9-.7-1.4-1l-1.8-.9c-.8-.4-1.8-.9-2.5-1.6-.1-.2-.3-.3-.4-.5-.3-.2-.7-.4-1-.5-.4-.1-.8-.2-1.2-.5-.2-.1-.4-.3-.6-.4-.5-.2-1-.5-1.5-.7-1-.5-2.1-.6-3.1-1-.3-.1-.6-.2-.9-.4-.4 0-.8-.1-1.2-.1-.4 0-.6-.2-.9-.4-1.8-.4-3.6-.7-5.5-.9-2-.1-4.1-.4-6.1-.3-.6 0-1.1 0-1.7.1h-.6-.1c-.3 0-.7.1-1 .1-.3.1-.5.1-.7 0-.6 0-1.2.1-1.7.1-.2.1-.5.2-.6.3-.6.2-1.2.3-1.8.3h-.2c-.9.3-1.8.7-2.7 1.1-.1.1-.2.1-.4.2h-.1c-.3.2-.7.3-1 .5-.1 0-.1.1-.2.1-.3.2-.6.3-.8.5-.1.1-.3.2-.4.3-.2.1-.4.3-.6.4-.2.2-.4.3-.7.5l-.2.2c-.1 0-.1.1-.2.1l-.1.1c-.2.2-.5.4-.7.6-.1.1-.2.3-.2.4v.2c-.4.2-.8.4-1.2.7l-.3.3s-.1 0-.1.1l-.1.1-.1-.1c-.3 0-.5-.2-.5-.4-.6-.5-1.3-.9-1.9-1.5-.7-.7-1.3-1.5-2.1-2.1-.1 0-.1-.1-.2-.1-2.4-.8-4.5-1.4-7-.2-1 .5-1.9.8-2.9 1-.2.1-.4.1-.6.2 0 0-.1 0-.1-.1h-.1c-.2 0-.3-.1-.4-.3-1.8-.4-3.2-1.7-4.7-2.7-1.5-1.1-3.2-1.6-4.8-2.3h-.4v-.2c-.8-.4-1.6-.8-2.3-1.3l-.2-.2-.1-.1v-.4c.1 0 .1-.1.1-.1 0-.1.1-.3.3-.3 3.1-1.3 7.1-1.3 9.1-4.4.6-.9 1.4-1.5 2.2-2.3 1.2-1.3 1.2-2.4 1.3-4.1 0-.3.1-.6.2-.9v-.1l.2-.2c.3-.5.6-1 .6-1.6.2-1.1 0-2.3.3-3.4 0-.1-.1-.3-.1-.4.1 0 .2-.1.2-.1.3-1.2.7-2.5.8-3.7-.1-.6-.2-1.2-.3-1.9-.1-.1-.2-.2-.2-.5-.2-.3-.1-.4.1-.5-.1-1-.3-2-.5-3-.4-1.7-.6-3.4-1.2-5-.6-1.5-1.3-2.9-1.9-4.3-.1-.2-.1-.3 0-.4-1.3-3.1-3.3-5.2-5.4-7.7l-.9-1.2c-2.2-1.7-1.9-5.7-1.6-8.1.2-1.6.7-3 1.5-4.4.7-2.6 2.5-4.7 5.7-5.6 3.3-1.8 7.1-2.1 10.5-.1 1.3.7 2.1 1.7 2.3 2.6.1.1.2.3.3.4h-.3c0 .4-.1.9-.3 1.3.1 1.9.5 3.8 1.2 5.6.1.2.2.4.3.5.8.6 1.4 1.4 2.1 2.1.5.3 1.1.6 1.7.9 2.2.2 4.3.5 6.5.8.7 0 1.3.1 2 .2.5 0 1 .1 1.4.1l.3-.3c.6-.3 1.3-.5 1.9-.6.6-.5 1.2-1 1.5-1.3 1.9-1.6 3.6-3.5 3.6-6.2-.1-2.7-1-5.6-2.7-7.7v-.1c-.5-.4-1-.8-1.4-1.3-1.5-1.4-2.9-2.2-5-2.7-.3-.1-.6-.3-.7-.5-1.4-.3-2.8-.6-4.6-.3.2-.5.7-.7 1.3-.7-.5-.6-.6-1.6.3-2.1 2.2-1.4 4-3.2 6-4.8.1-.2.2-.4.2-.6.1.1.3.1.4.1.8-.6 1.7-1.2 2.6-1.6.2-.1.5-.2.7-.3 0-.1.1-.2.2-.2.4-.2.8-.2 1.2-.2.8-.2 1.5-.3 2.3-.3 2.9-.2 5.6-.9 8.5-1.3 3.2-.5 6.3-1.2 9.3-2.2.1 0 .2-.1.2-.1h.1c1.8-.6 3.6-1.2 5.5-1.8 4.7-1.6 6.6-7.1 7.1-11.9-.4-2.1-1.1-3.9-2.7-3.9-1.2 0-1.9 1.3-2.8 1.9-.9.6-2.5.8-3.1 1.8v.4c-.2.8-.5 1.6-.8 2.3l-.3 1.5c-.2.7-.6 1.5-1.2 2-.3.3-.6.4-1 .5-1.6 1.9-3.7 3.3-6.2 3.9-1.4.4-2.9.8-4.4 1.1-.7.3-1.5.5-2.2.5-3.8.8-7.6 1.5-11.4 1.8h-.1c-.7.1-1.5.1-2.2.2h-.2c-3 1.4-5.6 3.7-7.8 6.2-.9 1-2.2 1.9-3.3 2.8v.1l-.3 1c-.1.5-.5.7-.8.8v.4c-1.3 1.2-1.5 3-2.6 4.2-1.3 1.4-3.4.6-5.1.5-1-.1-1.9 0-2.9-.1-.2 0-.5-.1-.7-.2-1.3 0-2.6.1-3.7.5-2.2.7-5 2.9-6.9 5 0 .2 0 .3-.1.5-1.3 2.7-3.5 5.4-4.1 8.4-.5 2.6-.7 5.2-.5 7.8.2.2.5.4.6.7.1.8.2 1.7.4 2.5 1 1.7 2 3.3 3.3 4.9.1.1.3.1.4.1 0 .2 0 .4.1.5 1.1 1.3 2.5 2.6 3.5 4.2 1.8 2.9 2.6 6.8 3.2 10.3.7 1.1.8 2.2.6 3.3.4 2.7.5 5.7-1.2 8-2.2 3.1-4.8 5.5-7.8 7.9-.2.2-.4.3-.6.3 0 .1-.1.3-.3.3-1.2.3-2.4.5-3.6.6-8.3 2.3-18.5.6-26.7-1.1-1.4 0-2.8-.2-4.1-.6h-.3v-.1c-.2-.2-.1-.4 0-.6-.1-.7-.3-1-.6-1.8-2.3-.6-6.6 3-7.4-.4.1-.1.3-.2.5-.3 0-.4.2-.7.6-.9 3.2-2 6.4-4.5 9.1-7.3.1-.4.5-.8.6-1 .3-.5.6-1 .9-1.6.6-1.1 1.2-2.2 1.6-3.4-.1-.7-.1-1.2.1-1.6 0-1.1 0-2.1-.2-3.1-.1-.5-.2-1-.4-1.4-.2-.5-.7-1-.7-1.5-.5-.4-.7-1.5-1-2-.4-.8-.8-1.5-1.1-2.3-.3-.8-.8-1.5-1.3-2.2-.2-.4-1.2-1.7-.4-2v-.1c1.5.3 3.1-.2 4.6-.4.7-.1 1.4-.2 2.1 0 .8.1 1.5.4 2.3.3 2-.2 3.8-1 4.7-2.7 1.8-.8 2.7-2.5 3.9-3.8.1-.1.2-.1.2-.2 1.9-3.4 4.2-6.5 4.9-10.5 0-.3-.1-.6-.3-1 .2-.2.4-.5.5-.7.3-4.8-1.7-8-5.5-10.7-1.4-.1-2.9-.6-3.1-2.3 1.5-2.6 4.6-5 3-9-2.1-.3-4.4-.2-6.7-.3 0-.2-.2-.2-.3-.5.3-1.1 1.3-1.7 1.9-2.5 1-1.4-.1-2.4-.2-3.9-.7.1-1 .7-1.4 1.1-.5.5-1.1.6-1.8.7-1.5.4-1.9 2.2-2.9 3.2 1.1 2.7.2 4.5.7 6.5 1.3-.7 3-2.3 4.6-2.2-.1 1-.5 1.7-.9 2.5-.1 1.9-.6 3.7-1.1 5.5v.3c0 .4-.3.7-.4 1v.5c.6 2-1.4 3.1-.4 4.6 1.7-.4 1.7-2.4 3.5-1.8.3 1.2-.8 1.3-.2 2.7.6 0 1 .5 1.9.3.6-1.1 1.3-2 2.1-2.9.8-.1 1.5.1 1.8.9.1.6-.9.4-.5 1.2.8.9 1.3 1.9 1.5 3.5-1.5 1.8-.1 5.8-2 7.5l.3 1.4c-.5.4-.8.9-1.2 1.4-.5.5-1.2.7-1.7 1.3-.4.4-.5.9-.8 1.4-.3.5-.6.8-1 1.1-.8.7-1.7 1.2-2.6 1.5-2.1.8-4.3.9-6.5.9-1.3-2-4.3-1.6-5.2-4.1-1-.1-1.6-.5-1.9-1.3-.8-.1-1.5-.3-2.2-.7-.3-.2-.7-.4-.7-.7 0-.2.1-.7-.1-.9-.6-.6-1.5.5-1.2-.5-.4-2.7-1-4.3-1.4-6.6-.3-.1-.5-.4-.6-.7-.1-.4-.3-.7-.4-1-.2.1-.4 0-.5-.3.1-.2.2-.3.4-.3-.1-.5-.2-.9-.3-1.4-.1-.1-.2-.2-.2-.4l.2-.2v-1.1c.2-2.6-.5-5-.5-7.5.1-4 1.4-7.5 3-11.1-1-.6-2.7-.1-3-1.8-1.1-.1-1.5.5-2.3.2-.3-1.3-.2-2 .1-2.6.1-1 .1-1.9.2-2.8-.1-.4-.2-.8-.1-1.3.1-.3.2-.4.4-.5l.3-1.2c.8-2.5.4-5.7-.9-7.9-.1-.1-.1-.2-.1-.4l-.1-.1c-.2-.1-.8 0-1-.1-.3-.1-.5-.5-.8-.6-.4-.1-.7-.2-1-.2-3.8 1.3-7.8 8.6-9.5 10.6l-1.5 1.8c-.5 2.8-2.6 4.5-4.2 6.5v.1c-.8 2.3-1.5 4.7-2.3 7.1-.6 1.8-1.4 3.7-2.1 5.7v.4c-.1.1-.3.3-.4.5-1.4 3.7-2.6 7.5-2.3 11.3v.4c.6 1.8 1.6 3.4 2.2 5.2 1.3 1.2 2.4 2.7 3 4.3.1.2.1.4.2.6 3 3.7 7.1 7.3 11.7 8.2 2.4.5 4.9.5 7.2 1.3 1.8.6 3.5 1.4 5.3 1.6 1.2-.4 2.4-.9 3.5-1.1.2-.2.6-.3.7.1.5.1 1 1.1 1.3 1.5.4.5 1.2 1.1 1.4 1.7 2.2 3 3.7 6.5 3.3 10.5-.3.3-.5.6-.7.9-.6 2.4-2.1 4.5-3.9 6.3h-.1l-.2.2c-.2.2-.5.3-.7.3-1.2 1.2-2.3 2.5-3.7 3.5v.2c-2 1-3.9 4-2 6-.4.8-1.3.7-2.1.6-1-.1-2-.1-2.9 0-2.3.1-4.7.4-7 .5-.4.2-1.1.3-1.5.4-1.6.9-3.3 1.7-5.5 2.1-.2-.5-.5-.9-.8-1.2-.1 0-.2 0-.4-.1-1.4.1-2.8.4-4.1-.1-1-.4-2.1-.7-2.8-1.5l-.1-.1h-.2c-2.9-2.2-5.6-4.4-9.8-4.8-.7-1.6-2-1.7-3.8-1.4-2-1.9-4.3-3.4-6.2-5.2-1.7-1.6-2.8-4.1-4.6-5.7-3.9-3.4-8.8-5.2-12.5-8.8-.1-6-3.6-11.6-7.2-15.5-4-3.4-6.2-4.8-9.8-6.8-14.5-5-32.6-7.3-47.7-2.6-4.6 2.9-5.3 3.7-10.5 8.7-.4 1.3-3.3 4.5-4 7-2.7 4.2-3 7.9-4.7 12.3-2.3 6.1-4.6 11.6-4.1 18.2.2 3.2-.5 7.3 0 10.4.1.9 0 8.2 0 10.9 0 2.3 1 4.6 1 6.7 0 1.3-.9 4.7-1 6.7-.4 7.5-2.7 9.8-3.1 17.9-1 2.2-.7 3.1-1.6 3.9-1.3 4-1.7 7.4-2.1 10.9-.2 1.6.6 3.5.5 5.2-.2 3.9-1.7 7.8-1.5 11.4.1 2.5 1.1 6.2 1.5 9.3.8 5.1.8 9.8 3.1 12.9l.6-.8.9.3c.4-1.6-.9-1.5-.5-3.1 2 .5 2.1 2.7 2.1 5.2-.5 0-.6-.5-1.1-.5l-.4.9-.7.7c.6 3 2.1 5.1 3.6 7.2l.3-.8.8.2c.7-3.1 2.7 2.2 1.5 2.6-.5 0-.6-.4-1-.5l-.3.8-.7-.3c.6 1.9 1.3 3.8 2.2 5.5 1.3.8 2.2 2 3 3.5.2.4.4.7.6 1 .9.7 1 1.2 1.4 2.1.9 1.2 1.8 2.3 2.9 3.5 3.8 4.3 7.3 9 11.1 13.3.5.4 1.1.7 1.7 1 8.8 10.3 24.6 18.5 36.8 25.9 3.8 2.3 7.8 5.1 11.4 6.7 1.9.8 10.9 4.7 15.5 5.2 10 5 20.7 8.3 30.4 13.6 1.2 7-.9 15.1-2.4 21.7-1.6 6.8-7 27.1-6.9 28.9-1.1 4.6-3.1 9.3-5 12-1.4 2.1-5.1 4.9-7.8 5.7-2.7.8-5.2.9-8.3 1.5-1.4.3-3.1.4-4.6.6-4.1.5-9.9-.1-11.2 2.7v.2l.2.8c2.9.7 11.7.3 13.2 0l6.4-.2c-4.8 3.7-16.6 6.4-20.5 7.8-1.9 1.5-1.6 3.1-.5 3.3 9.2-1.5 17.8-4.8 25.9-7.5 1.5-.7 3.7-2.2 5.7-3.3.4.5.7.9.8 1.2.1.2.1.1 0 0 .2 0 .3.3.4.4 1.1.9 2.6 2.9 5.3 3.7 2 .7 3.1 1.5 4.2 1.6 2.2.3 3.2-.6 3.1-3-2.6-1.9-6.8-6.1-8.3-9.2-.9-1.9 3.1-4.1 4.1-7 1.7-4.7 2.3-11.3 3.2-15.7.7-3.6 1.5-6.9 2-9.1 1-4.7 3.4-13 3.1-13.9 1.7-4.9 2.6-10.7 4.1-16.1 1-3.9.5-6.3 3.9-8.1 1.8.4 3.7-.4 6-.5 9.3 1.7 20.9 6.5 22.3 7.5 2.6 2.1 5.8 2.3 6.8 5.7 1.4 5.3-3 13.6-3.1 18.7 0 2.5-1 4.7-.6 8.3-1.8 6.7-2.2 12.5-5.7 21.7.5 2.1-.5 3.1-1 5.2-1.5 4.6-9.9 8.3-11.2 9.9-3.8 2-9.7 4.2-11.9 5.3-1.9.9-5.1 1.1-6.4 2.4-1 1-1.6 1.2-1.3 2.1.2.9 3.7.6 3.7.6l10.7-3.2 5.7-2.7c.9-.5 3.8-2 4-2.1 2.1-1 3.8-1.9 5.3-2.6-3.1 4.5-4.8 7.5-4.8 7.5-4.5 7.6-2.6 10.6-.1 7.4 1.1-1.6 2.1-3.5 3.5-5.3l1.9-3.5c3-3.4 3.4-3.8 5.7-5.1-.2-.2 1.4-.2 2.3-.2 2.8 2.1 7.5 5.7 10 5.3.6-.1 1.8-.9 2.3-1-2.8-4.8-6.5-7.4-9.5-10.1-1.8-2.7-1.7-5.6-1.6-8.3 1.9-8.4 1.2-6.6 2.7-11.7.4-1.3 1.7-6.7 1.9-8 1.4-5.8 6.6-29 6.2-36.8 2.8-3.4 6.2-5.7 6.2-5.7 2.9-1.2 5.6-.9 9.9-1.6 5.4-.8 7.6-1.3 10.9.5 2.5 1 4.7 2.4 6.8 4 .2 0 .4.1.5.2v.2c1.8 1.5 3.5 3.1 5.1 4.7 22.4 16.2 49.5 31.6 74.3 46.9.1 0 .1.1.2.1.8.5 1.7 1 2.5 1.6 3.3 2.1 6.6 4.2 9.8 6.2 0 0 .1 0 .1.1 1 .5 2 1.1 2.9 1.6l2.7 1.2c1.2.4 2.4.8 3.4 1.4.9.4 1.7.7 2.5 1.3 3.2 2.2 7.5 5.3 11.9 7.3 5.7 2.6 13.5 3.7 21.3 2.6 9.4-1.4 16.9-7 22.2-12.3.8 0 .9-1 .8-2.1m-49.9-64.4c.2 1.6-1.3 1.9-2.1 1.1.1-.9.9-1.2 2.1-1.1m-7.3-1.5c1.6 2.9 1.5 5.9 2.1 9.8-2.6-1-3.9-7.8-2.1-9.8M243.5 50.8c.1-1.3.5-2.6 1.1-3.9.2-.5.5-1 .8-1.4v-.1h.1c1-1.3 2.2-2.3 3.6-2.2h.2c1.2 0 2 .3 2.9.7.5-.4 1.2-.5 1.7.1 2.2 2.2 2.4 6.6.7 9.2-1.1 1.7-3.1 3.1-4.9 3.9-.7.3-1.3.5-1.9.4-.3.1-.6.3-1 .4-.1-.3-.3-.5-.4-.8-.1-.1-.3-.2-.4-.3-1.9-1.5-2.7-3.4-2.6-5.5l-.1-.1c.1-.2.1-.3.2-.4m8.1 97.6c.7.7 1.1 1.7 1.4 2.6.3.9.6 1.8 1 2.7 0 .1.1.2.1.3.4-.1.9.1.9.6.3 2.5.9 5.1 1.3 7.7 0 .3.1.5.1.8.1.4.1.8.2 1.2 0 .3.1.5.1.8.3 2.2.4 4.4.1 6.5-.5 4.3-2 7.9-4.3 11.6-.1.2-.2.3-.4.3-.5 1-1 1.9-1.7 2.7-.4.5-1 1.2-1.7 1.3-.9.1-1.7.4-2.5.8-1.7.7-3.3 1.7-5.1 2-.7.1-1.4 0-2.2-.1-.1.4-.3.7-.8.7-.7 0-1.4-.1-2.1-.2.1.3.4.6.6.9.5.9-.7.8-.9.1-.1-.4-.2-.8-.2-1.1-3.2-.7-6.2-2.6-8.9-4.5-2.6-1.8-4.4-4.4-6.4-6.8-.4.1-.7-.1-1-.4-2-2.5-3-5.6-4.7-8.3-1.6-2.6-2.5-5.2-3.1-8.2-1-4.9-2.3-9.3-1.8-13.9-.1-.4-.2-.9-.3-1.3-.4-.8.5-1 .5-1.8.1-.6-.8-.4-.6-1h1.2c.1 0 .2-.1.3-.1.1-.1.1-.3.2-.4.1-.3.3-.5.6-.7.2-.3.3-.7.3-.9.1-.4.6-.6 1-.9.4-.3.7-.7 1.1-1.1.6-.7 1-1.6 1.5-2.4.3-.6.7-1.2 1.1-1.7.7-.7 1.6-1.1 2.5-1.6.9-.5 1.5-1.1 2.1-2 .1-.2.3-.5.4-.7v-.5c.1-.3.2-.5.6-.6h.3c3 0 6-.1 9 .7 1.5.4 2.8 1.1 4.2 1.7.6.2 1.2.5 1.8.6.3-.1.6-.2.8-.2.4-.1.9-.3 1.3-.4.4.2.8.3 1.3.3-.3 2.1 1.7 3.1 3.2 3.9.2.1.4.3.5.5l-.2.2c-.4.5-.5.7-.1 1.2.6 1 1.3 1.9 2 2.8 1.5 1.9 3.2 3.6 5 5.3 0 .1.1.1.2.1-.2.5-.1.7.2.9m8.3-29.4c0-.5.3-1 1-1.1 4.9-.9 10.3.2 15.1 1.8.8.1 1.6.2 2.2.6.1.1.3.2.4.3 2.2.9 4.1 2.4 6.4 3.1 1.2.4 2.2.8 3.1 1.3.3 0 .7.1 1 .1.5.3 1 .6 1.4 1 .3.3.7.7.8 1.2.1.2.1.4.1.7 0 .4.3.5.5.7 1.4 1.4 3.1 2.6 4.5 4 1.6 1.5 3.4 2.9 4.6 4.8 1.2 2 1.3 4.2 1.8 6.4v.3c.2.2.5.5.7.6-.1.5-.1 1-.1 1.5s.1 1 .3 1.4c.2.5-.3.9-.5 1.4-.2.4-.3.8-.1 1.2.1.1.1.3.3.4-.1.2-.2.5-.3.7-.1.4-.5.8-.4 1.1.1.3.1.7.1 1.1 0 .8 0 1.5.7 2-1.7.6-2.6 3-3.4 4.4-.5.9-.9 1.6-1.7 2.1-.9.6-1.7 1.2-2.6 1.7-.9.4-1.8.6-2.7.2-1-.4.6-.7.9-.8.4 0 .6 0 .9-.3.3-.3.6-.5 1-.4.3.1.8-.5 1.2-.6.2-.1.5-.1.7-.1.2-.3.4-.6.6-.8.2-.3.5-.6.8-.9.5-.4.8-.6 1-1.3.5-1.2.6-2.5 1-3.8.1-.3.2-.6.4-.9 0-.3-.1-.6-.1-1-.1-.6-.1-1.3 0-1.9 0-.7.2-1.2 0-1.8-.1-.6-.2-1.3-.3-1.9-.1-.5-.3-1.1-.5-1.6-.1-.3-.3-.5-.5-.7-.3-.4 0-.2 0-.6 0-.2 0-.3.1-.5 0-.1 0-.2-.1-.3l-.3-.3c-.3-.4-1-.7-1.1-1.2-.4-1.1-1.1-2.1-1.8-3.1-.3-.5-.7-1-1-1.5-.2-.3-.3-.5-.5-.8-.2-.4-.6-.6-1-.8-1.1-.7-2.1-1.4-3.1-2.2-.9-.7-1.7-1.6-2.6-2.4-.8-.7-1.6-1.2-2.5-1.9-.9-.7-1.6-1.5-2.4-2.2-.4-.4-.9-.7-1.3-1-.4-.3-.9 0-1.3-.3s-.5-.6-1-.7c-.6-.2-1.3-.3-1.9-.4-1-.2-1.8-.6-2.7-.9-.4-.1-.8-.2-1.2 0-.6.3-.7.7-.4 1.2.8 1.5 2.4 2.3 3.9 2.8 1.8.6 3.7 1 5.4 1.9.9.4 1.7.9 2.1 1.8.5 1 .9 1.9 1.8 2.6 1.3 1 3.2 1.4 4.2 2.9.2.3.4.7.4 1.1.1.5.9 1.2 1.3 1.6.8 1 1.4 2.1 2.1 3.2.7 1.1 1.4 2.2 2.4 3.1-.4 1.1-.2 2.3.3 3.3.3.7 1.5 2.2.5 2.7-.1.1-.3.1-.4.2 0 .3-.1.6-.2.9-.1.6-.4 1.3-.6 1.9-.5 1.1-1.2 2.2-1.9 3.2-.4.5-.7 1.1-1.1 1.6-.1.2-.3.6-.6.6s-.6-.2-.8-.4c-.3.4-.5.9-.6 1.5-1.4-.5-2.7.2-4.1.2-.5 0-2 0-1.7-.8.2-.6.8-.9.9-1.5.5.5 1-.1 1.7.1.3.1.3.3.6.1.2-.1.3-.3.5-.5s.3-.4.4-.7c.3.1.6.2.8.1.4-.1.7-.3 1.1-.4.2-.1.4-.1.6-.1.4 0 .3-.2.5-.5s.6-.6.9-.8c.6-.3.7-.7.9-1.4.4-1.1.8-2.2 1.3-3.3.3-.5-.1-1-.1-1.6 0-.3 0-.6.2-.8-.2-.3-.4-.6-.4-1 0-.3 0-.6.1-.8l-.6-.6c-.4-.4-.7-.9-.9-1.4-.1-.2-.1-.5-.1-.8 0-.4-.1-.3-.4-.6-.4-.4-.8-.8-1.1-1.2-.6-.8-1.1-1.6-1.8-2.3-.4-.4-.9-.8-1.3-1.1-.5-.3-1-.3-1.5-.7-.7-.7-1-1.7-1.7-2.5-.7-.9-1.9-1.6-2.9-2.2-2.2-1.3-4.6-2.5-6.8-3.8-.6-.3-1.1-.7-1.7-1-.5-.3-.9-.9-1.5-.5-.8.4-1.1 1.3-.9 2.1.3 1.4 2.1 1.8 3.3 2.2.6.2 1.3.4 1.8.7.2.1.4.3.6.5.2.3.5.3.9.5 1.5.5 3 1.2 4.2 2.3.6.5 1.1 1.1 1.4 1.8.1.2.2.5.2.7.1.1.2.1.2.2.3.1.4.3.7.5.1.1.3.2.4.3 0 .3.1.6.2.9.2.5.2 1.1.7 1.3.9.5 1.6 1.2 2.4 1.9.3.3.6.6.9.8.4.3.9.5 1.2.9.5.8.4 1.9.1 2.8-.2.5-.4 1-.7 1.4-.3.5.1.8.2 1.3.2 1-.2 2-.8 2.8-.3.4-.5.6-1 .6-.6 0-.2.5-.4.7-.5.3-1.2.2-1.3 1-.7-.6-1 .3-1.6.5-.3.1-1.1-.3-1.5-.2-.5.1-1.1.2-1.6.3-2.1.3-3.8-1.7-6-1.3-.3-.2-.6-.4-.9-.5-.4-.3-.9-.1-1.4-.3-.6-.2-1.1-.5-1.7-.7-.3-.1-.6-.2-.9-.2-.2 0-.3 0-.5.1-.3-.2-.5-.4-.8-.6-.7-.4-1.4-.7-2.1-1-.3-.1-.7-.3-1-.4-.2-.1-.9-.6-1.2-.5-.2.1-.2.3-.4.3s-.4-.4-.5-.5c-.5-.5-1.1-.8-1.6-1.1-1.2-.7-2.6-1.3-3.3-2.6-.3-.5-.5-1.1-.7-1.7-.4-.7-.8-.9-1.5-1.1-1.3-.5-2.2-1.8-3.7-1.9-.5 0-.5.1-.7-.5-.2-.4-.3-.8-.6-1.2-.4-.8-.9-1.5-1.6-2 2.1-.3 3.5 2.2 5 3.1.9.6 1.9 1.1 2.7 1.8.4.3.7.7.9 1.1.5 0 1 .3 1.5.5.3.1 1 .6 1.2.1.1-.2-.1-.4-.3-.6-.2-.3-.1-.6.3-.5.4.1.7.3.9.7.2.3.2.7.3 1.1.3.4.6.7 1 1 .8.6 1.7.9 2.6 1.3.8.4 1.7 1.4 2.6 1.3.5-.1.8-.3 1.2.1.2.3.5.5.8.7 1.4.9 3.1 1.1 4.6 1.9.3.2.7.4.9.7.3.3.5.8.8.9.4.1.7-.2 1-.4.3-.2.4.4.5.6.2.4.9.3 1.3.4.5.1 1.1.2 1.6.3 1.1.2 2.1.2 3.1-.5.2.1.4.3.6.4.2.1.9-.4 1.1-.5.4-.3.7-.6 1-1.1.3-.5-.1-1.2.1-1.6.2-.4.6-.4.8-.8-.2-.2-.5-.4-.8-.2-.2.1-1.8 1.2-1.3.2.5-.9.9-1.8 1.2-2.8.2-.6 0-.8-.3-1.3l-.9-1.5c-1.4-2-3.7-2.5-5.5-4-.3-.3-.7-.6-1.1-.6-.2 0-.4 0-.6.1l-.3-.6c-.3-.4-.6-.7-1.1-.5-.5.2-.2 1.1-.1 1.5.6 1.9 2.7 2.9 4.3 3.9.5.3.7.4 1 .9.1.4.2.7.4 1.1.2.8.5 1.6 1.2 2.1.3.3 1 .3 1 .8.1.5-.1.9-.3 1.2-.2.4-.6.7-.8 1-.3.4-1-.4-1.2-.7-.6-.6-.9-1.4-1.8-1.8-.2-.1-.5-.2-.8-.2-.1-.3-.1-.5-.2-.7-.1-.2-.2-.4-.4-.6-.2 0-.4-.1-.6-.2-3.3-1.9-5.9-4-9.5-5.4-2.4-.9-4.5-2.8-6.9-3.4-2-.6-4.4-.5-6.4-1.2-.6.1-1.1-.4-1.6-.6-.2-.1-.5-.2-.7-.2-.4 0-.4-.1-.7-.4-.5-.3-1-.6-1.5-.8-1.1-.4-2.3-.6-3.4-1-.5-.2-2.9-1-2.5-1.7.2-.3.6-.4.9-.4.4-.1.8-.4 1.1 0 .3.3.6.2 1 .3.5.1.8-.4 1.2-.3 1.2.4 2.5 1.3 3.8.9 1-.3 1.9.1 2.8.5.9.4 1.4 1.2 2.4 1.2 1.1.1 2.2.2 3.2 0 .8-.1.1-1.4-.3-1.7-1.2-.8-2.9-1-4.2-1.6-1.6-.7-3.9-1.9-5.7-1.5h-.2c-.4-.2-.9-.7-1.4-.8-1.3 0-2.2.7-3.3-.2 1.4-1.2 3.2-1.4 4.9-1.9.2 0 .4-.1.5-.2.4-.1.5.1.8.2.5.2.9.4 1.4.6.9.3 1.8.3 2.7.2.3 0 2.2-.4 2-.9-.2-.5-1-.4-1.3-.6-.3-.1-.6-.3-.9-.6-.3-.3-.7-.3-1.2-.4-1-.2-1.6-.9-2.3.1-1-2-2.8-.3-4.3-1 .8-.7 1.5-1.4 2.4-2 .6-.4 1.2-.6 1.8-.6.2-.1.4-.2.7-.2 1.9 0 3.7-.1 5.6 0 .3-.2.6-.3 1 0 1.8.1 3.5.2 5.3.6.1 0 .2.1.3.1.3-.1.6-.3.9-.4.5-.3.9-.4.5-1-.5-.6-1.3-1.1-2.1-1.3-.6-.2-1.4-.4-2-.1-.3.1-1.1-.3-1.5-.4-.5-.1-1 0-1.5-.1-.3 0-.5-.1-.8-.2-.4-.1-.5 0-.8 0-.5.1-1.1 0-1.6.1-.4.1-.7.5-1.1.5-.5 0-1-.1-1.5-.2-1-.3-2.1-.7-3.2-.4-.9.2-1.8.9-2.8 1-.5 0-1.1 0-.9-.6.2-.4.5-.6.8-.8.7-.5 1.5-.7 2-1.3 2.2.9 4.2.3 6.2-.5m-26.1 1.1c.6-.4 1.3-.9 2.1-1 .4 0 .7 0 1.1.1 2.6.9 5.1 3.5 6.4 5.9h.5c-1.1 1.5-.5 3.2.2 4.7l.6 1.2c.2.6.5 1.3.6 2 .1.3-.3.6-.6.9-2.4-1.8-5.1-3-8.1-3.7-.4-.1-.8-.2-1.2-.2-.1-.1-.2-.1-.3-.2l-.1-.1h-.1c-.5 0-.8-.3-1-.6-1.6-.2-3.2-.4-4.6-1-.1.1-.1.1-.2 0v-.1h-.1c-.1-.1-.2-.1-.3-.2h-.2c-.1 0-.2-.1-.3-.2-.5-.3-.9-.6-1.3-.9-.1-.1-.2-.1-.3-.2-.7-.6-1.6-1.3-2.2-2.1l-.3-.3c-.4-.4-.5-.8-.4-1.2-.1-.5-.3-1-.4-1.5-.1-.3-.2-.9.1-1.2 0 0 .1 0 .1-.1.1-.2.3-.3.5-.2.3.1.7.2 1 .4h.2c0 .1.1.1.1.2.6.3 1.1.7 1.5 1.2l.9.9c.3.1.5.3.7.6.3.4 1.2.2 2.4-.2.1-.2.2-.3.3-.4.7-.9 1.4-1.5 2.7-2.5m-57.4-50.6s-.1 0-.2.1c-.5 0-.6-.1-.5-.1-1.1-.4-1.5-1.9-2.9-1.9 0-.7-.6-.7-.5-1.6-.6-.5-1.4-.6-2.3-.6-.7-1.3-.9-3.3-1.9-4.1-2 1.2.4 2.7.4 5.1l.1.1c.1.2.2.3.3.5.1.1.3.1.5 0-.5 1.7.5 1.8.9 3.6-1.8-.1-2.7-1.6-4-2.4 0-.2 0-.3-.1-.4-2.5-3-3.4-6.5-5.1-10-.1-.1-.2-.1-.2-.2s0-.1.1-.2c-1.7-3.8-1.2-8.6-1.1-12.6 0-.3.1-.6.3-.8v-.2c.3-.6.8-1 .9-1.6.7-.2 1 .2 1.4.2.1 4.5.8 8.9 1.5 12.8 1.2.8 3.6.3 3.3-1.5-.7-1-1.9-1.7-.8-3-.8-.5-.7-1.5-.6-2.5-.5-1.2-1-2.6-1.3-3.9-.1-.2-.1-.4-.1-.5-.2-1.1-.1-2.3.5-3.4 0-.3-.1-.7 0-1.2l.8-.1c.1-.1.2-.3.2-.4.4-.9.9-1.8 1.4-2.7.4-.9.7-1.8.7-2.8V33v-.1c0-.8.1-1.5.3-2.2v-.1c-.1-.1-.3-.1-.4-.2.6-.9.9-2 2-2.5 0 .2.1.3.1.5.6.1 1.2.7 1.3 1.4h.1c.4.8.1 1.2-.3 1.5 0 1.6-.1 3.2-.3 4.7.2.1.4.3.4.7-.2 0-.3.1-.5.2-.4 2.7-.8 5.4-.8 8.2v.9c0 .3.1.6.1.9h-.1v1.7c.2 0 .2.2 0 .4 0 3.2.2 6.5.7 9.7.5.8.9 1.7 1.7 2 .6 3.3 1.8 5.1 2.9 6.9.3.1.7.2 1.2 0 .6.8.6 1.6-.1 1.9m-74.3 21.2c1-.9 3.9-2.3 3.9-2.3l.8-.3c-.2-.8-1.6-.4-1-2 2.3.3 4 1.2 5.2 2.6l.5-.3.5.3c2.2-.1 5 1.9 3.6 3.6l.2.5.8.3c3.3 3.3 8.3 4 9.8 9-8.2-.1-17.9-2.3-27-3.1-.1-1-.3-1.7-1.1-2.1 1.1-2.4 3.7-3 3.8-6.2m.5 12.9c2.5.3 6.3-1.2 7.3 1.6-5-.3-11.7 3.5-15.6.5.2-4.8 5.1-2.5 8.3-2.1m-85.5 85.1h-1v-1h1v1zM325 307.4c-.4 1.7-1.3-1-1.5-1.9-1-2.9-1.4-5.2-2.1-8.5 4.7 0 2.2 7.2 3.6 10.4m-5.7 17.6l.8-.2s5.9 1.2 10.1 3.4c3 1 7.3 1.7 8.3 5.2-6.3-2.3-18.9-6.5-18.9-6.5l-.3-.8c-2.2-.4-4.1-1-5.7-2 1.8-1.7 4.1.7 5.7.9m-2.6-29v5.2c-2-.2-1-3.5-2.1-4.7.2-.7 1.3-.4 2.1-.5m-5.6-13c1.5-.1 2.8-.1 2.6 1.6h-3.1c.2-.4.5-.9.5-1.6m-15.1-4.6c-.8 1.8-3.1-.2-4.7-.5-3.4-.7-7.7-.9-10.4-2.1-.3-.4-.6-.8-.5-1.5 5.2-.6 10.9 2.5 15.6 4.1m-46.2-19.2c3.9 1 7.9 1.8 11.4 3.1-4.2 2.1-7.3-1.3-11.4-1-.8-1.1.1-.7 0-2.1m-21.2-5.2c-2-.8-5.3-.3-5.7-2.6 1.8.9 4.9.6 5.7 2.6m16.1 10.9l.8-.3.8.3c2.6.5 4.9 1.3 7.8 1.6l-.3-.8.8-.3c.1-.8 1.2-.5 2.1-.5 0 .5-.4.6-.5 1.1l.8.3-.3.8c4.1 2.5 11.6 1.6 15 4.6 1.7-.4 5 .1 5.7 2.1-3.8.4-4.7-2.2-8.8-1.6-6.6-3-15.8-3.5-22.3-6.7l-1 .3-.6-.9c-2.9.8-5.1-1-7.8-1.5-1.9-.4-3.8-.1-5.7-.5-2.1-.5-3.6-1.9-5.7-2.6-2.4-.8-5.2-.8-7.8-1.6-4.2-1.2-7.9-2.1-12.4-3.1-4.3-.9-8.2-3.2-12.4-4.2-1.8-.4-3.9 0-5.7-.5-1.3-.4-2.3-1.7-3.6-2.1-1.3-.3-2.8.3-4.1 0-3.1-.6-6.3-2.3-9.3-3.1-10.3-2.7-20.1-4.9-29-8.8-.3-1.1-1.6-1-.6-2.1 7.7.4 13.5 2.7 20.2 4.1v-.2l.6-1.3c-.4-1.5-2.4-1.3-2.1-3.6 2.8-2 4.6.8 7.8 1.6 1.1.3 2.1-.3 3.1 0 4.4 1.3 9.6 4.2 15 5.7 1.4.4 2.8.2 4.1.5 5 1.4 10.6 3.4 14.5 4.7 2.1.6 3.9 1.1 5.7 1.6 3.5.9 7.7.9 9.9 4.2-5.2-1.6-11.5-2-15.6-4.7-13.5-.9-25.8-7.4-39.9-9.3l1.3 2.3v-.4c9.9 3.4 20.6 6.3 30.3 9.4 3.5 1.1 6.8.9 10.4 2.1 1.1.4 2.5 2 4.1 2.6 1.8.6 4.7.3 7.3 1 2 .6 3.6 2 5.7 2.6 6.8 2.1 17.1 3.6 21.7 7.2m-110-44.6c-2.6-.1-3.8-1.7-5.2-3.1.2-.7.7-1.1 1.5-1l.3-.8.8.3v-1.5c3.5 2 9.5 1.5 9.9 6.7-2.8 1.4-5.1-1.7-6.7-3.1l-.3.8-.8-.3c-.1.9.6 1.1.5 2m-10.4-50.7c.6 0 1.1-.1 1.1-.1l.5-.2.5.2c1.8.9 3.9-.9 4.2 2.1-1.8-.1-3-.8-4.2-1.5l-.8.2c.1 0 0-.2-1.3-.7-.9 0-1.8 0-.6-.3-1.9-.8-5.6-2.1-12.9-4.5 0-.7-.6-.7-.5-1.6 4.7.2 11.3 2.9 15.1 5.7-.8.1-1.3.2-1.7.3.3.2.5.3.6.4m2.1 16l.7-.7.9-.4c-.3-1.8-3.1-1-2.6-3.6h1.6c4.8 3.6 12.1 4.5 15.1 9.9-.7.2-1.1.7-1 1.6-3.2 0-4.4-1.8-6.8-2.6l-.8.3-.8.3c.4.6.7 1.4.5 2.6-6.3.5-10.3-5.5-14-9.3 3.5-.6 4.2 1.8 7.2 1.9m7.8-6.8c3.1.9 6.2 1.7 7.3 4.7-3.6-.3-6.5-1.4-7.3-4.7m34.5 36.4l.8-.6c-3.6-4.5-9.1-7.1-13.5-10.9.1-.4.4-.6 1.1-.5 3.2.4 4.6 1.9 6.7 3.1 4.8 2.8 11.2 4.2 10.9 9.9-.7 0-.7.7-1.6.5l.3 1-.8.6c1.6 1.8 6.1 3.1 4.1 6.7-3.8.5-4.1-2.4-6.7-3.1l.2.9-.7.6c-.2 1.2.9 1.1.5 2.6-7 .8-10.2-6.7-16.1-8.8.1-1-.6-1.1-.5-2.1 5.8 1.1 8.4 5.4 14 6.7l-.2-.9.7-.6c-4.5-5.2-12.2-7.1-16.1-13 7 1.7 10.7 6.6 17.1 8.8l-.2-.9zm-1.4-30.4l.6.8c1.4-.1 1.7.7 1.5 2.1-.7-.3-1.2-.8-1.5-1.6l-.9.3-.6-.8c-1-.1-1-1.4-2.1-1.5.2-1.1 2.5-.1 2.1 1l.9-.3zm-.4 9.6c-.6-.8-2.1-.6-2.1-2.1.8.6 2.3.5 2.1 2.1m5.2 12.4c-2.9.1-3.9-2.8-5.7-4.2-1.8-1.3-4.7-1.7-5.7-4.1 3.9 2.7 9.3 3.8 11.4 8.3m-15-27.5c.9-.7 3.5.3 3.6 2.1-1.6-.3-3.7-.1-3.6-2.1m-5.8-4.6c1.4.7 2.9 1.2 3.1 3.1-2 0-3.9-1.9-3.1-3.1m6.8 52.9c-2.6 1.1-8.9-1-7.8-3.6 2.6-.8 5.4 2.4 7.8 3.6m-5.7 4.1c-3.4-.3-8.3-1.6-7.8-4.2 2.5-.4 6.3 2 7.8 4.2m-6.2-20.7c1.6-.4 1.6.8 2.6 1.1-.5 1.1-3.3.4-2.6-1.1m1.5 8.3c-3.4-1.6-6.3-3.8-7.8-7.2 2.8 1.9 9.6 2.4 7.8 7.2m-13.5 9.3c-2.4-.4-4.2-1.4-4.7-3.6 3-.4 5.7 1.7 4.7 3.6m66.4-4.7c-1.1-.4-2.3-.8-3.1-1.5.6-2.2 3.1-.1 3.1 1.5m-6.7-5.1c-.9 2.3-3.5-.4-4.1-1.6 2.2-.4 2.5 1.2 4.1 1.6m3.1 8.8c2.9 1.8 7.2 1.9 8.3 5.2-5.2-.2-7.4-3.3-10.3-5.7-2.8-.3-5.1-1.1-5.7-3.6 3.7-.5 5.3 2.7 7.7 4.1m-1.3 8l.8-.3c-2.7-2.7-6.5-4.2-9.8-6.2 2.3-2.1 2.9 1 5.2 2.1 2.8 1.3 6.7 1.3 7.8 2.1 2 1.4 3 4.1 3.6 6.2 6.2 1.2 11.3 3.6 16.6 5.7-.1 1.4-2.3.6-3.1.5-3.5-.3-5.9-1.6-7.8-2.1-2.6-.6-5.7-.3-8.3-1-2.2-.6-5-2.1-6.7-2.6-5.6-1.6-12.4-1.9-15.6-5.7 4.9-5.1 10.6 2.9 17.6 2.1l-.3-.8zM174.1 197c1.4 3.5 7.7 4.7 7.3 8.3-4.4-2.5-7.5-6.3-12.4-8.3v-2.1c1.9.5 2.5 2.3 5.1 2.1m-14-25.9l.3-.8.8.3c2-1.1 2.4 3.8 4.7 4.2l.5.3.5.3c0-.5.4-.6.5-1 1 1.2 1.4 2.6 1.1 4.2-1.2.1-1.7-.4-1.6-1.6l-.8.2-.3-.8c-2.7 1.2-3.4-2-5.2-3.1-3.3-2.1-8.1-2-8.8-5.7 3.9-.1 5.1 2.7 8.3 3.5m-7.7-11.4c-.3 1.7-3.5 0-3.6-1.6-.8.8-2.7.5-2.6-1 2.7.1 4 1.8 6.2 2.6m-25.4-9.4c2.1-1.2 3.1.8 5.7.5.7 2.7 5.4 1.4 6.2 4.1-3.4 0-4.7-2.8-7.8-1.6-3-2.9-9.9-1.8-11.9-5.7 3.5.1 5.9 1.1 7.8 2.7m12.9 8.8c1.4 3.2 5.9 3.1 7.3 6.2-10.7-2.1-16.6-8.9-28-10.4-2.6-1.9-5.5-3.5-9.3-4.1-.3-.4-.5-.9-.5-1.6 9.4 2 20.2 7.1 30.5 9.9m-34.2-5.2c5.6.7 8.5 3.9 14.5 4.2 2.5 3.5 9.5 2.6 11.9 6.2v.5l.9-.3.6.8c2.8.3 4.9 1.3 5.7 3.6-2.3-.6-4.3-1.5-6.2-2.6v-.5l-1 .2-.6-.8c-8.2-3.4-16.9-6.3-25.4-9.3 0-.6-.6-.9-.4-2m1.6 34.3c-.1 1.3-1.8.2-2.1 0 .1-1.3 1.8-.2 2.1 0m1 12.4l.7-.7.9-.4c-.8-2.8-4.7-2.6-5.2-5.7 3.7 1.3 6.1 3.9 10.3 4.7l-.2-1 .8-.6c-1.4-2.3-5.1-2.1-5.2-5.7 3.4-.1 4.8 1.8 7.3 2.6 1.9-4.2-7-4.3-5.7-7.8 3.4 2.7 9.4 2.6 10.4 7.8h-3.1c.8 3.4 5.8 2.5 5.2 7.3-1.8 1.3-4.2-.4-5.7-1l-.6.8-1-.2v1.6c-2.4 1.3-4.3-.4-6.2-1.1l-.6.8-.9-.3c-4 2.5-8.8-2.8-10.9-5.7 4.4.3 5.7 3.8 9.7 4.6m6.2 10.9c3.7 1.8 7.4 3.6 9.8 6.7-4.7-.7-7.2-3.7-9.8-6.7m2.1 7.8c-3.2.7-7-2.3-8.8-4.6 2.1-1.6 7.2 2.1 8.8 4.6m-14.5-14c-3.3.6-6.7-2.9-8.3-5.7 4 .4 8.9 2.4 8.3 5.7m-60.7-78.8c.6.1.9-.1 1.1-.5 1.2.8.8 1.3.5 2.6-1.4.1-1.7-.8-1.6-2.1m.5 44c-2.1-12.4 3.3-23.8 5.2-36.8l-.3-.8-.3-.8c.2-2.4.4-4.8 1.1-6.8 1.4 1.4 0 4.7 0 6.8l.2.9s-.8.6-.2 1.6C46 150 42.8 165 44.5 179.9c.9 7.3 3.5 13.4 5.2 20.2 2.6 6.2 6.8 10.8 8.8 17.6 2.8 3.4 5.8 6.8 8.3 10.4 2.6 3.8 5.6 7.3 7.8 11.4-3.4 1.1-4.9-3.2-6.8-5.2-1-1.1-2.1-2-3.1-3.1-3.3-3.8-5.4-7.2-8.3-11.4-1.9-2.7-4.4-5.1-5.7-7.8-1.8-3.8-2.9-7.5-4.2-11.4-.3-1-1.2-2.1-1.5-3.1-3-8-4.6-17.7-3.1-27m9.9-29c.5-.3.9 0 1 1.1-.2 6.6-2.1 12.5-2.6 19.2-1.3 18.8 5.1 36.3 10.4 49.8-3.5-2.6-4.1-8.1-7.3-10.9-3.4-9.6-7.3-20.3-6.2-35.3.4-5.6 2.6-10.7 3.6-16.6.5-2.6-.9-5.4 1.1-7.3m6.7 5.2c-.4 6.7-2.4 13.3-2.6 20.2-.2 8.3 1.9 16.4 2.6 24.9-2.8-.7-2.2-4.8-4.2-6.2.2-5.3-1.6-10.4-1.5-15.5 0-8.8 2.1-18.1 3.1-27 .7-6.5.7-12.7 2.1-18.2.5.2.9.5 1 1-1.4 6.8 0 13.6-.5 20.8m1.1 48.7c-1.4.1-1.7-.7-1.6-2.1.4.8 1.7.8 1.6 2.1m.5-31.6c-.3-3.4.8-6.6 1.1-10.4.2-2.5-.6-5-.5-7.2.2-3.8 1.7-7.4 1-10.9 3.4 13 .1 23.2.5 37.9-3.6-1.2-1.9-6.7-2.1-9.4m8.3 2.1c-2.7-1.5-1.7-8.1-1.5-10.9 3.3 2.2 1 6.4 1.5 10.9m4.1 34.7c2.2-.2 3.7.4 4.2 2.1-1.6 1.1-4.1-.2-4.2-2.1m2.6-9.8c1.4-1.6 3.7.7 2.1 2.1-1.2-.2-2.4-.4-2.1-2.1m0-37.4c1 2.3 4.8 4.1 4.1 6.3-2.1-1.4-3.9-2.9-4.1-6.3m2.6 29.6c1.9-.1 3.6-.1 3.1 2-1.1 1-3.5.1-3.1-2m2.1-5.7c2.7-.1 5.5-.3 6.2 1.5-.6 3.7-6.5 1.8-6.2-1.5m-1-27.5c3.2.5 4.5 3.1 6.7 4.7 2.6.1 3.9-1.2 4.2 1.6-5.8 0-9.6-1.9-10.9-6.3m5.6 0c-.1-1.2-.8-2-.5-3.6 3.2 1.3 7.4 1.6 8.9 4.7-3.1-.8-5 .1-8.4-1.1m.6-10.4c3.8 0 5 2.6 7.8 3.6-1.3 2.6-5.2-.5-7.3-.5 0-1.2-.9-1.5-.5-3.1m11.4 68.5c-1.4.3-4.9-1.2-5.2-3.6 3-.1 4.5 1.4 5.2 3.6m-3.6-69.5c-2.6-.3-4.9-1.1-6.8-2.1v-1.6c2.1-.5 6.5.7 6.8 3.7M73.6 61.1c1.8-.2 3 .2 2.6 2.1-.8-.8-3-.1-2.6-2.1m2.6 6.8h-1.5v-1.6c1-.1 1.6.4 1.5 1.6m0 23.8c-.1 1.4 1.5 1.3 2.1 2l.8-.2.3.8c1.2-1.9 2.5-3.8 3.6-5.7.7 0 1.1.3 1.5.5v3.1l1-.3.6.8c1.1-1.6 1.7-4.8 4.7-3.1 1.2 1.1-3 7.6-4.7 6.7-.2-.7-.8-1-.5-2.1l-.9.2-.6-.8c-1.4 1-2.9 4.1-4.6 3.1v-.5l-.8-.3-.2-.8c-1.6 1.5-1.9 4.3-4.7 4.7v-1.6l-1 .3-.8-.6c-2.1.7-1.6 3.9-4.7 3.6-1.5-1.5 1.7-3.6 0-5.2-2.5.9-2.7 4.2-5.7 4.7-.6-2.8 1.4-3.1 1-5.7l-.6-.6-.4-.9c-2.9 1.8-4.3 5-7.3 6.8-.2-1.2 1-1.1.5-2.6l-.8-.3-.2-.8c-2.2 1.6-3.4 4.2-4.6 6.7-2.4-5.6 3.5-7.5 3.6-12.4l-1 .3-.6-.8c-3.5 2.6-4.9 7.2-7.3 10.9-2.6-4.7 3.5-9.2 4.2-14l-1 .3-.6-.8c-5.4 1.7-4.3 9.8-9.3 11.9-.7-8.5 5.9-14.1 10.9-18.7l-.8-.6.3-.9c-.7 0-1.2-.3-1.6-.5.9-2.4 5.1-4.9 6.2-3.6-.1 1.8-2.3 1.5-2.6 3.1l.8.6-.3.9c2.9-.7 3.4.2 5.2 1.6 2-.7 5.7-2 6.8.5l.7-.3.8.3c2.1-2.6 3.8-4.6 9.2-3.9 5.6 1.4 7.6 9.8 3.4 14.2M44 72c2.6-2.1 5.4-3.9 9.8-4.2.4 3.5-3.6 2.6-5.7 3.6-1.3 1.2-2.5 2-4.1.6m22.3-.5c.4-1.8 2.5-1.8 3.6-.5 0 2.4-2.3.1-3.6.5m5.2-4.1c-1.5.4-1.3-.7-2.6-.5 0-1.6 3.1-1.5 2.6.5m-5.7-7.3c2.4-.3 4.8-1.2 5.2 1.6-9.1-1-20.2 3.5-29.6 6.7 1.4-7.5 18.6-7.5 24.4-8.3M38.3 81.4c1.1-.2 1.4.4 2.1.5.1 3.2-3.2 3-2.6 6.7-4.9 2-3.2 10.6-7.3 13.5.4-9.2 4.2-14.8 7.8-20.7m-3.6 50.2c-.1-1.3-.1-2.5.5-3.1 2-.2 1 3.6-.5 3.1m-2.6-50.2c1.9 2.3-2.2 6.9-4.7 8.3.2-4.1 3.5-5.2 4.7-8.3m-5.2 10.3c1.3 1.5-.4 4.5-2.1 4.7.2-2.1.6-3.9 2.1-4.7m37.3 167.5c-6.3-4-12.3-8.8-17.6-14.5-5.8-6.2-10.5-13.6-15-21.3-.8-1.3-.8-2-1.6-3.6-4.6-9.8-8.4-19-8.8-33.2-.4-13 1.8-27.1 4.7-38.9.5.2.9.5 1 1-4.4 25.4-2.7 53.7 7.8 72.6 2.3 4.1 5.8 8.3 8.8 12.4 2.6 3.7 4.4 5.1 7.8 8.3 1.6 1.6 2.7 3.9 4.1 5.2 2.2 2 5.2 3.6 7.8 5.7 5 4.2 10.3 7.1 16.1 10.9 2.5 1.6 5.8 3 7.2 5.7-7.6-2.5-15.3-5.8-22.3-10.3m33.2 5.2v.1l-.6-.7c-2.3-.3-4.1-1.1-4.7-3.1l-1-.6v.1c-4.7-2.6-9.6-5.5-14-8.8-5.5-4.1-12.3-9.2-15.5-14.5-4.1-1.6-6-5.4-9.3-7.8l-.6.8-.9-.3c.6 2.6 2.9 4.5 4.7 6.3 1.8 1.8 3.4 3.8 5.2 5.7 1.9 1.9 4.5 3.2 6.7 5.2s3.9 4.4 6.2 6.2c4.6 3.6 9.7 6.5 13.5 10.9-13.4-4.6-21.8-14.2-32.2-21.8-3.9-5.7-8.8-10.5-13.5-15.6-2.9-8.7-9.4-16.3-11.4-25.9-2.5-12.2-1.5-28-1.5-39.9 0-8.6 4.5-17.5 5.2-24.4-.2-1 .6-1.7 1.1-1.6.3 0 .6.5 0 .5-.8 12-4.1 25.4-4.2 38.9 0 4.5.4 9.6 1 14 2.3 16.8 9 30.8 18.7 41l.6-.8.9.2c-1.3-3.6-4.2-6.6-6.2-10.4-.9-1.7-1.6-3.7-2.6-5.7-.9-1.7-2.5-3.5-3.1-5.2-1-2.4-.8-5.3-1.6-8.3-.5-2.2-1.6-4-2.1-6.2-1.5-8.4-1.9-18.1-1.5-24.9.1-2.2 1.3-3.9 1.5-6.2.9-7.8 1.2-12.8 3.6-18.7 2 7-1.8 14.3-2.1 21.8-.2 5.8 0 12.3.5 18.2.6 6.2 2.9 13 4.2 17.1.6 2 .4 4 1 5.7 3.2 8.6 9.1 16.9 14.5 22.8 2.1 2.3 3.8 4.8 5.7 6.8 1.4 1.5 3.1 2.6 4.7 4.1 1.6 1.5 2.7 3.8 4.2 5.2 1.3 1.2 3.2 1.8 4.6 3.1 1.5 1.3 2.7 2.9 3.6 4.7 3.9 2.1 7.9 4.2 10.4 7.8l-.1-.1h.1l1.1.7c2.7-.2 3.7 1.1 4.7 2.6l.8.4-.3.1c2.3-.4 2.1 1.7 3.6 2.1-1 1.3-3-.8-3.6-1.6m4.2-4.2H100v-.5l-.8-.3h.1c-1.4.1-2-1-1.9-2.4-.4 0-.6 0-.8-.1.1.1.2.3.3.6-.2-.2-.3-.4-.3-.6-.6-.1-.3-.3 0 0-.2-.9 2.5.5 2.9 1.1l.6 1c.8.3 1.7.2 1.5 1.2m-13-16.6c4.6 1.3 7 4.7 11.9 5.7 5.2 5.5 14.2 7.2 19.2 13-1.5-.4-2.2-1.5-4.7-1-3.3-2.6-6.3-5.5-11.4-6.2-4-4.9-11.9-5.8-15-11.5m2.6-8.8c.2-1.7 3.2-1 2.6 1.1-1.3 0-1.6-.8-2.6-1.1m5.7 4.2c.3-2.2 3.5 0 2.1 1-1.1.1-1.7-.3-2.1-1m5.2 3.1c.2-1.7 3.2-1 2.6 1-1.7.4-1.6-.8-2.6-1m8.8 4.1c1.6-.9 4.4.6 4.7 2.6-2.8.3-4.4-.4-4.7-2.6m9.8 6.3c-1.9.5-1.7-1.1-2.6-1.6.1-.7 3.2 0 2.6 1.6m.6 18.1c3.7.6 6.4 2.3 8.3 4.7-3.8-.4-5.7-1.9-8.1-3.7l-.7-.3-.6-.3c-2.5 1.3-4.8-1.9-6.1-3.5-1.7 0-2.8-.7-3.1-2.1 3.3 1.4 7.3 2.1 9.4 4.7l.5.2.4.3zm8.3 16.6c1.5.2 2.6.8 3.6 1.5-.3 1.8-4.3.8-3.6-1.5m-4.7-6.8c-6.1-4.7-15.7-6.1-20.2-12.4 4.3.7 6.1 3.9 10.9 4.1 4.6 3.8 11.6 5.4 15.5 9.9 1.6-.4 1.9.5 3.1.5-2.9 1.2-5.5-2.3-9.3-2.1m86.1 6.8c2.4 1.3 6.5.8 7.8 3.1-2.7.9-6.3-1.2-7.8-3.1m.5-4.7c1.6 0 2 1.1 3.1 1.6-.7 1.2-3.8.4-3.1-1.6m4.7 2.6c.4-.9.9-.1 1.5 0-.4.9-.9.1-1.5 0m6.2-15.5c-.9-.1-1.2-.9-2.1-1-3.2-.7-6.6-.4-9.8-1.1-2.8-.6-5.9-1.9-8.8-2.6-6.8-1.7-12.7-3.2-18.6-4.7-3.2-.8-6.8-1.2-9.9-2.1-1.9-.6-3.7-1.9-5.7-2.6-1.1-.4-2.4 0-3.6-.5-.9-.3-1.8-1.3-2.6-1.5-5.5-1.6-11.3-1.4-16.1-4.7-4.6 0-8.9-1.7-13-3.1-4-1.3-8.4-2.5-11.9-4.1-2.8-1.3-5-3.7-7.8-5.2-3-1.6-6.4-2.6-9.3-4.2-5.8-3.1-10.9-7.4-17.1-9.8-2.6-4.7-8.9-5.6-10.4-11.4 3 .4 3.8 2.8 6.2 3.6l.4-.9.7-.7c-.3-1.2-1.1-3.1 0-4.1 3.1.4 6.3 2.5 8.3 4.1 2.1 1.8 2.9 4.3 4.7 5.7 2.9 2.2 7.2 2.1 8.3 5.7-7.8-2.1-12.9-6.9-19.7-9.8l-.6.7-.9.4c7.5 7 17.8 11.2 26.4 17.1 1.6-.2 1.8.9 3.6.5 1.7-.1 1.3 1.9 2.1 2.6 7.9 1.6 15.5 5.2 23.3 7.2 4.2 1.1 8.4 1.9 12.4 3.1 3.8 1.2 7.5 3 11.4 4.2 3.3 1 6.9 1.1 10.4 2.1 2.8.8 5.5 2.4 8.3 3.1 4.3 1 8.7 1.5 13 2.6 4.3 1.1 8.6 1.6 13 2.6 2.2.5 4.1 1.9 6.2 2.6 8 2.4 14.6 3.5 21.8 5.2 7.5 1.8 15.6 3.6 22.3 5.7 2.4.7 4.5 2.1 6.7 2.6 1.8.4 4-.3 5.7 0 1.3.2 3.1 1.1 4.7 1.6 1.7.5 3.5 1.1 5.2 1.5 8.6 2.2 15.6 4.3 23.3 5.7 4.1.8 9 .8 11.9 4.2-4.4-1.7-10.9-1.2-14.5-3.6-4 .9-6.6-1.8-9.3-.5-7.3-3.8-17-4.6-25.9-6.7-14-3.6-28.9-7.4-42.7-9.5m87.6 31.6c-2.3-.8-1.6-4.6-2.5-6.8h2c-.4 2.8.3 4.5.5 6.8m-9.3-3.6c-.5-1.5-2.2-3.5-1-4.7.8-.2.9.5 1.5.5.4 1.7 1.4 5.5.5 6.8-1.9.3-.7-1.7-1-2.6m-1.6 14c0 1.3-1.9 1.2-2.6.5.1-1.3 1.9-1.2 2.6-.5m-3.1-7.3c-.4 1.9-2.1.4-3.1 0 .2-1.2 2.7-.4 3.1 0m-3.6-13.5h1.6c.4 1.7 1.6 4.7.5 6.2-2.7-.1-2.1-3.4-2.1-6.2m-4.2 10.9c-1.2 1.7-2.7-.7-4.1-.5.6-2.1 3.1-.1 4.1.5m55 66.4c-2.7-1.5-5.9-2.5-6.8-4.6-5.5-2.2-10.9-5.4-16-8.3-3.6-2.1-6.7-4-10.4-6.2-5.2-3.2-11.2-6.3-16.6-9.9-7.1-4.7-14-9.6-21.3-14-.6-.2-1.1-.7-1-1.5h1c19.2 10.3 39.9 20.8 60.1 31.1 5 2.6 10.8 5.2 16.6 8.3 2.8 1.5 7.7 2.5 8.3 6.7-4.3 4.3-9.2.9-13.9-1.6m11.4-5.2c-6.2-3.4-12.5-6.3-19.2-9.9-1.9-1-3.7-2.5-5.7-3.6-3.1-1.8-6.3-3.8-9.3-5.2-11-5-22.7-12-33.7-18.2-7.5-4.2-14.9-8.3-22.3-12.9-3.1-1.9-6.7-2.5-8.3-5.7h1.6c6.6 4.3 15.5 6.3 21.3 11.4 7.2 2.4 13.6 6.6 20.2 9.8 1.7.8 3.5 1.6 5.2 2.6 4.1 2.3 9.5 5 14.5 7.8 13 7.1 26.5 12.9 39.4 20.2 4.3 1.4 9.5 1.9 9.3 7.8-4.8 2.1-9.3-2.1-13-4.1"/></svg>