<svg version="1.1" id="Layer_1" xmlns="http://www.w3.org/2000/svg" x="0" y="0" viewBox="0 0 400 150" xml:space="preserve"><style type="text/css">.st0{fill:#bf9d3e}</style><path class="st0" d="M96 105.3h-1.3c-.9 0-1.4.8-1.8 2.1l-3.3 9.2c-.1.3-.4.6-.7.6-.2 0-.3-.1-.6-.7l-3.2-6.5c-.1-.2-.2-.4-.4-.4s-.2.2-.4.4l-3 6.9c-.1.3-.6.3-.9.3-.3 0-.5-.2-.8-.9l-4.2-9.7c-.4-.9-.9-1.3-1.8-1.3H73c-.2 0-.3-.1-.3-.6s.1-1 .3-1c.4 0 1.1.2 3.3.2 2.7 0 3.9-.2 4.3-.2.2 0 .3.3.3 1 0 .3-.1.6-.3.6h-1.5c-.5 0-.7.3-.7.7 0 .3.1.7.3 1l2.3 5.8c.1.3.2.5.4.5.1 0 .3-.2.5-.6l2.9-6.8c.1-.3.2-.4.5-.4.2 0 .7.2.9.5l3 6.2c.1.3.2.4.4.4.1 0 .2-.1.3-.4l1.6-5c.1-.4.3-.9.3-1.2 0-.6-.5-.9-1.2-.9-.5 0-.6-.1-.6-.6 0-.9.1-1 .3-1 .3 0 1.4.2 3.4.2 1.4 0 2.1-.2 2.4-.2.2 0 .3.1.3.4-.1 1-.2 1.4-.4 1.4M108.1 116.6c-.4 0-2.4-.2-4.9-.2-1.9 0-3.7.2-4 .2-.2 0-.3-.3-.3-1.1 0-.4.1-.5.2-.5h2.4c.4 0 .7-.4.7-1v-7.3c0-.9-.2-1.4-1.3-1.4H99c-.2 0-.3 0-.3-.5s.1-1.1.3-1.1c.3 0 1.3.2 4.4.2 3.5 0 4.1-.2 4.5-.2.2 0 .3.2.3.7 0 .7-.1.9-.2.9h-1.7c-1 0-1.3.5-1.3 1.3v7c0 1.1.2 1.4 1.7 1.4h1.6c.1 0 .2.1.2.6.1.6.1 1-.4 1M129.9 105.3h-1.1c-1.1 0-1.4.8-1.4 1.8l-.1 5.9c-.1 3.1-.3 3.9-.6 3.9-.5 0-.7-.2-1.5-1l-6.8-7c-.2-.2-.4-.4-.6-.4-.2 0-.2.2-.2.7v4.3c0 .8.4 1.5 1.1 1.5h1.8c.2 0 .3.2.3.7 0 .6-.1.9-.3.9-.4 0-1.4-.2-3.4-.2-2.5 0-3.5.2-3.7.2-.2 0-.3-.1-.3-.8 0-.6.1-.8.2-.8h1.2c.9 0 1.6-.3 1.6-1.6l.1-5.7c0-.9-.9-2.4-2.3-2.4h-1.1c-.2 0-.4-.2-.4-1.1 0-.3.1-.5.2-.5.4 0 1 .2 2.9.2 1.3 0 1.7.2 2.8 1.4l6.8 7c.2.2.4.3.5.3.2 0 .3-.2.3-.5l-.1-5.2c0-1-.5-1.5-1-1.5h-1.5c-.2 0-.3-.4-.3-.9s.1-.7.3-.7c.5 0 1 .2 3.7.2 1.9 0 2.5-.2 2.9-.2.2 0 .3.2.3.7-.1.5-.2.8-.3.8M147 116.4c-.1.4-.2.5-.4.5-.3 0-2.2-.5-8.3-.5-3.2 0-4.7.2-5 .2-.2 0-.2-.4-.2-1 0-.4.1-.6.2-.6h2.4c.5 0 1-.2 1-.9v-7.9c0-.6-.3-.9-.7-.9h-2.6c-.2 0-.3-.2-.3-1 0-.4 0-.6.3-.6s1.6.2 4.3.2h4.5c2.9 0 3.9-.7 4.1-.7.3 0 .4.1.5.4.3 2.6.7 4 .7 4.3 0 .2-.6.3-.9.3-.2 0-.2-.4-.5-.8-1.1-1.8-1.9-2.1-4.9-2.1-1.5 0-1.7.1-1.7 1.2v2.4c0 .4.3.5.8.5 1.6 0 2.1-.2 2.5-1.3.1-.4.2-.8.4-.8.5 0 .8.1.8.2.3 2.8.7 4.3.7 4.6 0 .2-.6.4-.8.4-.2 0-.3-.3-.4-.5-.7-1.2-1.2-1.4-2.4-1.4s-1.5.2-1.5.7v2.6c0 .9.4 1 2 1 2.8 0 3.7-.3 4.9-1.8.2-.3.4-.7.6-.7.3 0 .8.2.8.4-.2.4-.6 1.7-.9 3.6M166.7 117c-1.5 0-2.8-.6-3.7-.6-.7 0-1.2.4-1.5.4s-.5-.1-.5-.4c-.1-1.8-.5-3.4-.5-3.8 0-.2.5-.4.7-.4.2 0 .3.4.5.6 1.5 2.4 2.4 3.1 4.4 3.1 1.7 0 2.4-1 2.4-2.3 0-1.5-1.8-1.9-3.6-2.5-1.9-.6-3.9-1.4-3.9-3.7 0-2.8 2.4-4.1 4.6-4.1 1.1 0 2.2.5 2.7.5.9 0 1.2-.3 1.5-.3.2 0 .4.1.4.3.1 1.9.3 3.3.3 3.5 0 .2-.5.4-.8.4-.2 0-.3-.5-.6-.9-1-1.5-1.9-2.3-3.4-2.3-1.3 0-2.4.9-2.4 2.2 0 1.1 1.4 1.6 3 2.1 2.2.7 4.7 1.5 4.7 4.1.1 2.6-1.7 4.1-4.3 4.1M193.8 105.3h-2.1c-.4 0-.6.4-.6 1v7.3c0 .8.2 1.3.7 1.3h1.6c.2 0 .2.3.2.7 0 .6 0 .9-.2.9-.3 0-1.6-.2-3.7-.2-2 0-2.7.2-3 .2-.2 0-.3-.2-.3-1 0-.5.1-.6.2-.6h.5c.7 0 1.1-.4 1.1-1.7v-1.9c0-.5-.2-.7-.6-.7h-5.1c-.6 0-.9.2-.9.7v2.4c0 1 .4 1.3 1 1.3h1.1c.2 0 .2.2.2.7 0 .7-.1.9-.2.9-.3 0-1.2-.2-3.4-.2-2 0-4 .2-4.3.2-.2 0-.2-.2-.2-1 0-.5.1-.6.2-.6h1.7c1 0 1.3-.6 1.3-1.6v-6.7c0-.9-.3-1.5-1.2-1.5H176c-.1 0-.2-.1-.2-.6 0-.7.1-1 .2-1 .4 0 1.2.2 3.7.2 2.1 0 3.4-.2 3.7-.2.2 0 .3.3.3.9 0 .5 0 .7-.2.7h-1.3c-.5 0-.6.7-.6 1.6v1.6c0 .5.2.7.6.7h5.3c.5 0 .7-.2.7-.8v-1.5c0-1.2-.2-1.6-.9-1.6h-1c-.2 0-.2-.2-.2-.7 0-.7 0-.9.2-.9s1.1.2 3.3.2c2.8 0 3.6-.2 4.3-.2.2 0 .2.2.2.5 0 .7-.1 1.2-.3 1.2M205.4 117.1c-4.6 0-7.3-2.4-7.3-7.2 0-3.7 2.7-6.7 7.2-6.7 5 0 7.4 2.8 7.4 7.3 0 3.6-2.7 6.6-7.3 6.6m-.4-12.7c-2.4 0-3.8 2.1-3.8 6.1 0 3.4 1.9 5.6 4.3 5.6 2.7 0 4-2.6 4-5.9 0-3.3-1.3-5.8-4.5-5.8M225.6 112.3c-1.5 0-2-.7-2.7-.7-.3 0-.4.1-.4.4v1.8c0 1 .6 1.2 1.3 1.2h1.6c.2 0 .3.1.3.6 0 .6-.1 1-.2 1-.3 0-1.1-.2-4.8-.2-2.7 0-3.8.2-4.1.2-.2 0-.3-.2-.3-1.1 0-.4.1-.5.2-.5h1.2c1.6 0 2.1-.4 2.1-1.4v-6.5c0-1.3-.4-1.8-1.5-1.8h-1.1c-.2 0-.2-.1-.2-.7 0-.7.1-.9.3-.9.5 0 2 .2 5.9.2 5.5 0 7.1 1.3 7.1 3.8-.1 3.1-2.5 4.6-4.7 4.6m-2.2-7.3c-.6 0-.9.4-.9 1v4.3c0 .5.6.8 1.7.8 2.1 0 3.1-1 3.1-3.1s-.8-3-3.9-3M262.8 114.7c-1.3 1.3-2.9 2.2-4.8 2.2-2 0-3.5-.7-4.8-1.9-.2-.2-.4-.2-.6-.1-1.6 1.2-3.2 2-5.2 2-3.2 0-5.2-1.8-5.2-4.5 0-2.2 1.3-3.7 3.4-4.6.2-.1.2-.2.1-.4-.8-1-1.2-2.1-1.2-3.3 0-2.1 1.7-3.5 4.2-3.5 2.2 0 3.6 1.4 3.6 3.2 0 1.7-1.2 2.9-2.9 3.6-.2.1-.2.2 0 .3 1 .8 2.1 1.8 3.1 2.9.3.4.8.9 1.1 1.3.1.1.3.2.4 0 .6-.9 1.2-2.2 1.6-3.5 1-3.4 2.4-5.5 5.1-5.5 1.6 0 2.5 1 2.5 2.1 0 1-.7 1.8-1.6 1.8-1.3 0-1.7-1.4-2.4-1.4-1 0-1.7 1.1-2.4 3.4-.5 1.5-1.2 2.9-1.9 3.9-.1.2-.1.3 0 .4 1.2 1.1 3.1 2 4.5 2 .7 0 1.7-.2 2.7-.8.3-.2.7-.7.9-.7.2 0 .4.3.4.5-.1.1-.5.4-.6.6m-16.1-6.2c-.2-.2-.3-.2-.5 0-.9.7-1.2 2-1.2 3.4 0 1.7 1.5 3.2 3.3 3.2 1.3 0 2.4-.3 3.5-1.1.2-.1.2-.2.1-.4-1.9-2.3-3.7-3.6-5.2-5.1m1.7-7.1c-1 0-1.7.9-1.7 2.4 0 1.2.6 2 1.5 2.9.2.2.3.2.5.1 1-.7 1.3-1.8 1.3-3.2.1-1.3-.5-2.2-1.6-2.2M283.6 116.7c-1.3 0-3.5-.3-5.3-.3-2.5 0-3.1.2-3.5.2-.2 0-.2-.4-.2-1.1 0-.4.1-.5.2-.5h1.5c1 0 1.6-.4 1.6-1.3v-7.3c0-.7-.5-1.1-1.1-1.1h-2.4c-.2 0-.2-.1-.2-.6 0-.7.1-1 .2-1 .5 0 1.4.2 3.3.2 1.4 0 4-.3 5.3-.3 3.6 0 4.9 1.3 4.9 3.4 0 1.3-1 2.3-2.9 2.6-.3 0-.4.1-.4.2s.2.2.5.2c2.4.3 3.8 1.3 3.8 3.1 0 2.4-1.7 3.6-5.3 3.6m-1.1-11.8c-1.4 0-1.8.3-1.8.9v2.8c0 .7.3.9 1.8.9 1.9 0 2.6-1 2.6-2.4 0-1.3-.6-2.2-2.6-2.2m0 5.6c-1.4 0-1.8.3-1.8.9v3c0 .8.4 1.2 2.1 1.2 2.2 0 3.2-.9 3.2-2.7 0-1.5-1-2.4-3.5-2.4M308 116.6c-.4 0-1.1-.2-3.2-.2s-3.6.2-4 .2c-.1 0-.2-.3-.2-.8 0-.7.1-.8.2-.8h.9c.8 0 1.1-.2 1.1-.7 0-.3-.1-.7-.3-1.1l-.2-.6c-.1-.3-.3-.3-2.8-.3-2.3 0-2.5.1-2.6.3l-.3.8c-.1.4-.3.7-.3 1 0 .4.4.6.9.6h.9c.2 0 .4.1.4.7 0 .4-.1.9-.2.9-.4 0-1.8-.2-3.5-.2-1.6 0-2.4.2-2.9.2-.1 0-.2-.2-.2-1 0-.5.1-.6.2-.6h.9c1.2 0 1.5-.2 2-1.1l4.8-10.3c.1-.2.2-.4.7-.4.7 0 .9.1 1 .3l4.7 10.7c.2.5.7.8 1.7.8h.5c.1 0 .2.1.2.4-.1.6-.2 1.2-.4 1.2m-6.7-6.2L300 107c-.2-.4-.2-.6-.4-.6s-.2.2-.4.7l-1.4 3.3c-.1.2-.2.4-.2.6 0 .2.2.3 2 .3 1.7 0 1.9-.1 1.9-.2 0-.2 0-.4-.2-.7M327.1 116.6c-2.5 0-4.8-.1-5-.6-1.7-3.7-2.3-4.8-3.9-4.8-1 0-1.3.1-1.3.6v1.9c0 1.1.2 1.4.7 1.4h.6c.3 0 .4.1.4.6 0 .8-.1 1-.3 1-.4 0-1.5-.2-3.8-.2-2.1 0-3.1.2-3.5.2-.2 0-.3-.4-.3-1.1 0-.4.1-.5.2-.5h1.8c1.2 0 1.4-.7 1.4-1.7v-5.9c0-1.7-.4-2.1-1.2-2.1H311c-.2 0-.3-.1-.3-1 0-.4.1-.6.2-.6.3 0 1.8.2 3.3.2 2.2 0 4.4-.1 5.4-.1 2.9 0 4.8 1.5 4.8 3.6 0 1.9-1.3 2.9-3.1 3.1-.2 0-.4.1-.4.2s.1.2.4.3c1.1.3 1.8.9 2.3 1.7 1.3 2.2 1.5 2.4 3.6 2.4.2 0 .2.1.2.6s0 .8-.3.8m-8.5-11.6c-1.5 0-1.7.4-1.7 1.1v3.4c0 .5.3.6 1.6.6 2 0 3-.8 3-2.6.1-1.6-.7-2.5-2.9-2.5M74 71l-3.6 10.9H35.1v-5.7h5.2V40.3h-5.2v-5.7H71v9.5h-5.3v-3.9H48.2v15.5h11.2v-4.1h5.1v12.8h-5.1v-3.9H48.2v15.8h18.4l1.8-5.3zM119.7 47.4c-.9-5.2-4.6-8.2-9.3-8.2-4.1 0-7 2.4-7 6.4 0 4.3 4.8 6.4 10.3 8.8 6.4 2.9 13.5 6.5 13.5 14.7 0 8.1-6.9 13.9-16.3 13.9-4.6 0-9.5-1.9-12.3-5.3l.7 3.9h-5.2l-2.7-14.7h5.7c2.4 6.6 7.2 10.4 13.4 10.4 4.7 0 8.7-2.6 8.7-6.9 0-4.7-5.1-7.1-10.6-9.8-6.1-3-13-6.1-13-13.9 0-7.5 6.2-13 14-13 3.1 0 7.6 1 10.3 4.5V34h5v13.4h-5.2zM162.9 76.1V40.3h-12.2l-.1 5.8h-5.7V34.6h44.3v11.5h-5.3v-5.8h-13.1v35.8h6.9v5.8H156v-5.8zM247.4 70.3L243 81.9h-35.3v-5.8h5.2V40.3h-5.2v-5.7h35.9v11h-5.3v-5.4h-17.5v15.5H232v-5.5h5.1v15.6H232v-5.3h-11.2v15.8h18.4l2.5-6zM357.5 47.4c-.9-5.2-4.6-8.2-9.3-8.2-4.1 0-7 2.4-7 6.4 0 4.3 4.8 6.4 10.3 8.8 6.4 2.9 13.5 6.5 13.5 14.7 0 8.1-6.9 13.9-16.3 13.9-4.6 0-9.5-1.9-12.3-5.3l.6 3.9h-5l-2.7-14.7h5.7c2.4 6.6 7.2 10.4 13.4 10.4 4.7 0 8.7-2.6 8.7-6.9 0-4.7-5.1-7.1-10.6-9.8-6.1-3-13-6.1-13-13.9 0-7.5 6.3-13 14-13 3.1 0 7.7 1 10.3 4.5V34h5v13.4h-5.3zM267.3 34.6h21.5c11.5 0 17.8 5.4 17.8 13.7 0 6-3.8 10.9-10.6 12.9 4.7 10.9 11.3 16.1 17.7 18.1l-.9 3c-10.7-.1-18.9-5.9-24.9-19.5-1.9.1-4.5.2-6.8.2v13.1h6v5.7h-19.9v-5.7h6V40.3h-6v-5.7zm16.8 22.9c9.1 0 13.5-3 13.5-9 0-5.4-3.6-8.1-10.4-8.1h-6.8v17.1h3.7z"/></svg>