<?xml version="1.0" encoding="utf-8"?>
<!-- Generator: Adobe Illustrator 22.1.0, SVG Export Plug-In . SVG Version: 6.00 Build 0)  -->
<svg version="1.1" id="Layer_1" xmlns="http://www.w3.org/2000/svg" xmlns:xlink="http://www.w3.org/1999/xlink" x="0px" y="0px"
	 viewBox="0 0 28 20" style="enable-background:new 0 0 28 20;" xml:space="preserve">
<style type="text/css">
	.st0{fill-rule:evenodd;clip-rule:evenodd;fill:#6A7783;}
</style>
<g id="aHuLWL_1_">
	<g>
		<path class="st0" d="M13.2,17.4c-2.5-2.6-5.4-3.4-8.9-2.8c0-0.3,0-0.6,0-0.9c0-3.4,0-6.9,0-10.3c0-1.2,0-1.3,1.3-1.4
			c3-0.4,5.4,0.6,7.2,3c0.2,0.2,0.3,0.5,0.3,0.8C13.2,9.6,13.2,13.4,13.2,17.4z"/>
		<path class="st0" d="M2,17.4c0-0.3,0-0.6,0-0.9c0-3.9,0-7.8,0-11.8c0-1.1,0-1.1,1.3-1.1c0,4.1,0,8.3,0,12.4c4.2-0.4,6.4,0.1,8.7,2
			C8.6,17.2,5.4,16.9,2,17.4z"/>
	</g>
</g>
<g id="aHuLWL_11_">
	<g>
		<path class="st0" d="M14.4,17.4c2.5-2.6,5.4-3.4,8.9-2.8c0-0.3,0-0.6,0-0.9c0-3.4,0-6.9,0-10.3c0-1.2,0-1.3-1.3-1.4
			c-3-0.4-5.4,0.6-7.2,3c-0.2,0.2-0.3,0.5-0.3,0.8C14.4,9.6,14.4,13.4,14.4,17.4z"/>
		<path class="st0" d="M25.6,17.4c0-0.3,0-0.6,0-0.9c0-3.9,0-7.8,0-11.8c0-1.1,0-1.1-1.3-1.1c0,4.1,0,8.3,0,12.4
			c-4.2-0.4-6.4,0.1-8.7,2C19,17.2,22.2,16.9,25.6,17.4z"/>
	</g>
</g>
</svg>
